<!-- <svg xmlns="http://www.w3.org/2000/svg"  data-encore-id="icon" role="img" aria-hidden="true" class="Svg-sc-ytk21e-0 iYxpxA home-active-icon" viewBox="0 0 24 24"><path d="M13.5 1.515a3 3 0 0 0-3 0L3 5.845a2 2 0 0 0-1 1.732V21a1 1 0 0 0 1 1h6a1 1 0 0 0 1-1v-6h4v6a1 1 0 0 0 1 1h6a1 1 0 0 0 1-1V7.577a2 2 0 0 0-1-1.732l-7.5-4.33z"></path></svg> -->
<svg xmlns="http://www.w3.org/2000/svg" height="24" viewBox="0 0 24 24" width="24" focusable="false" aria-hidden="true" style="pointer-events: none; display: inherit; width: 100%; height: 100%;"><path d="m11.485 2.143-8 4.8-2 1.2a1 1 0 001.03 1.714L3 9.567V20a2 2 0 002 2h5v-8h4v8h5a2 2 0 002-2V9.567l.485.29a1 1 0 001.03-1.714l-2-1.2-8-4.8a1 1 0 00-1.03 0Z"></path></svg>